<svg width="18" height="40" viewBox="0 0 18 40" fill="none" xmlns="http://www.w3.org/2000/svg">
<path d="M3.05277 3.10842C2.25333 3.90118 1.62554 4.84992 1.20842 5.89567C0.791306 6.94141 0.593792 8.06178 0.628157 9.18712L0.623636 23.9364C0.618921 25.448 0.914222 26.9455 1.49243 28.3421C2.07064 29.7387 2.92026 31.0067 3.99206 32.0727L5.31284 33.3934L5.31284 29.7285C3.9322 28.1149 3.17558 26.06 3.18024 23.9364L3.18385 9.15005C3.15723 8.367 3.29241 7.58687 3.58096 6.85843C3.8695 6.12999 4.30521 5.4689 4.86083 4.91648C7.10373 2.67358 10.7542 2.67358 12.9971 4.91648C14.1235 6.0429 14.7184 7.5454 14.6732 9.18893L14.675 12.8611L12.5451 17.1209L14.6741 14.9919L14.6759 21.8969L12.5451 26.1612L14.6732 24.0331C14.6562 26.3737 13.7163 28.613 12.0578 30.2646L10.2073 32.1151L10.2073 15.3128L7.65067 15.3128L7.65067 39.3474L10.2073 39.3474L10.2073 35.7313L13.8659 32.0727C14.9378 31.0068 15.7875 29.7388 16.3657 28.3422C16.9439 26.9455 17.2392 25.448 17.2343 23.9364L17.228 9.22509C17.2667 8.09371 17.0715 6.96651 16.6546 5.91403C16.2377 4.86155 15.6081 3.90642 14.8052 3.10842C11.5651 -0.131631 6.29281 -0.13163 3.05277 3.10842Z" fill="#8E8D8B"/>
</svg>
