<svg width="41" height="37" viewBox="0 0 41 37" fill="none" xmlns="http://www.w3.org/2000/svg">
<path d="M35.058 1.68119L39.2174 35.0986H1.78261L5.94203 1.68119H35.058ZM35.875 0.39209H5.125L0 36.4202H41L35.875 0.39209Z" fill="#8E8D8B"/>
<path d="M30.75 8.1125C30.75 6.69003 29.6039 5.53906 28.1875 5.53906C26.7711 5.53906 25.625 6.69011 25.625 8.1125C25.625 8.99213 26.093 9.73095 26.7661 10.1959C26.1455 14.8175 23.5305 18.4062 20.5 18.4062C17.472 18.4062 14.8545 14.8175 14.2339 10.1959C14.907 9.73095 15.375 8.99213 15.375 8.1125C15.375 6.69003 14.2288 5.53906 12.8125 5.53906C11.3962 5.53906 10.25 6.69011 10.25 8.1125C10.25 9.12282 10.8456 9.97728 11.6864 10.3969C12.4221 16.4812 16.0181 20.9797 20.5 20.9797C24.9819 20.9797 28.5779 16.4812 29.3136 10.3969C30.1569 9.97728 30.75 9.12282 30.75 8.1125Z" fill="#8E8D8B"/>
</svg>
