<svg width="20" height="34" viewBox="0 0 20 34" fill="none" xmlns="http://www.w3.org/2000/svg">
<path d="M9.97659 17.5684C5.26825 17.5684 1.35492 13.6584 1.35492 9.03171C1.35492 4.24504 5.26825 0.333374 9.97825 0.333374C14.8483 0.333374 18.5999 4.24337 18.5999 9.03171C18.5915 11.3035 17.6815 13.4789 16.0698 15.08C14.4581 16.6811 12.2767 17.5767 10.0049 17.57L9.97659 17.5684ZM9.97659 5.36171C7.98325 5.36171 6.46659 7.03671 6.46659 9.03337C6.46659 11.0267 7.98325 12.5434 9.97825 12.5434C12.0533 12.5434 13.4899 11.0267 13.4899 9.03337C13.4916 7.03504 12.0533 5.36171 9.97659 5.36171ZM13.4099 24.6717L18.2816 29.38C19.2399 30.415 19.2399 31.9317 18.2816 32.89C17.2449 33.925 15.6466 33.925 14.8483 32.89L9.97825 28.1017L5.26825 32.89C4.78992 33.3684 4.14992 33.6067 3.42992 33.6067C2.87159 33.6067 2.23325 33.3667 1.67325 32.89C0.71492 31.9317 0.71492 30.415 1.67325 29.3784L6.62325 24.67C4.83564 24.1407 3.12081 23.391 1.51825 22.4384C0.319919 21.8 0.0815861 20.205 0.719919 19.0067C1.51825 17.81 2.95492 17.4917 4.23325 18.29C5.96425 19.3464 7.95289 19.9053 9.98075 19.9053C12.0086 19.9053 13.9973 19.3464 15.7283 18.29C17.0066 17.4917 18.5216 17.81 19.2399 19.0067C19.9599 20.205 19.6383 21.7984 18.5199 22.4384C17.0049 23.3967 15.2483 24.115 13.4116 24.6734L13.4099 24.6717Z" fill="#8E8D8B"/>
</svg>
