<svg width="40" height="24" viewBox="0 0 40 24" fill="none" xmlns="http://www.w3.org/2000/svg">
<path fill-rule="evenodd" clip-rule="evenodd" d="M39.0833 1.91337C39.36 1.00337 39.0833 0.333374 37.7583 0.333374H33.3833C32.27 0.333374 31.7567 0.911707 31.4783 1.55004C31.4783 1.55004 29.2533 6.87671 26.1017 10.3367C25.0817 11.34 24.6183 11.6584 24.0617 11.6584C23.7833 11.6584 23.365 11.34 23.365 10.4284V1.91337C23.365 0.820041 23.0583 0.333374 22.1317 0.333374H15.2517C14.5567 0.333374 14.1383 0.840041 14.1383 1.32171C14.1383 2.35671 15.715 2.59671 15.8767 5.51004V11.84C15.8767 13.2284 15.6217 13.48 15.065 13.48C13.5817 13.48 9.97333 8.12837 7.83167 2.00504C7.41667 0.813374 6.99667 0.333374 5.87833 0.333374H1.5C0.25 0.333374 0 0.911707 0 1.55004C0 2.68671 1.48333 8.33337 6.90833 15.8017C10.525 20.9017 15.6167 23.6667 20.255 23.6667C23.0367 23.6667 23.38 23.0534 23.38 21.995V18.14C23.38 16.9117 23.6433 16.6667 24.525 16.6667C25.175 16.6667 26.2867 16.9867 28.8833 19.445C31.85 22.36 32.3383 23.6667 34.0083 23.6667H38.3833C39.6333 23.6667 40.26 23.0534 39.9 21.84C39.5033 20.6334 38.0867 18.8817 36.2083 16.8034C35.1883 15.62 33.6583 14.345 33.1933 13.7067C32.545 12.8884 32.73 12.5234 33.1933 11.795C33.1933 11.795 38.5267 4.41837 39.0817 1.91337H39.0833Z" fill="#8E8D8B"/>
</svg>
