<svg width="36" height="26" viewBox="0 0 36 26" fill="none" xmlns="http://www.w3.org/2000/svg">
<path d="M35.834 12.8906C35.834 12.8047 35.834 12.707 35.8301 12.5938C35.8262 12.2773 35.8184 11.9219 35.8105 11.543C35.7793 10.4531 35.7246 9.36719 35.6387 8.34375C35.5215 6.93359 35.3496 5.75781 35.1152 4.875C34.8679 3.95371 34.3831 3.11347 33.7093 2.43827C33.0354 1.76306 32.1962 1.27655 31.2754 1.02734C30.1699 0.730469 28.0059 0.546875 24.959 0.433594C23.5098 0.378906 21.959 0.34375 20.4082 0.324219C19.8652 0.316406 19.3613 0.3125 18.9082 0.308594H17.7598C17.3066 0.3125 16.8027 0.316406 16.2598 0.324219C14.709 0.34375 13.1582 0.378906 11.709 0.433594C8.66211 0.550781 6.49414 0.734375 5.39258 1.02734C4.47149 1.27594 3.63191 1.76225 2.95798 2.43755C2.28406 3.11284 1.79945 3.95341 1.55273 4.875C1.31445 5.75781 1.14648 6.93359 1.0293 8.34375C0.943359 9.36719 0.888672 10.4531 0.857422 11.543C0.845703 11.9219 0.841797 12.2773 0.837891 12.5938C0.837891 12.707 0.833984 12.8047 0.833984 12.8906V13.1094C0.833984 13.1953 0.833984 13.293 0.837891 13.4063C0.841797 13.7227 0.849609 14.0781 0.857422 14.457C0.888672 15.5469 0.943359 16.6328 1.0293 17.6562C1.14648 19.0664 1.31836 20.2422 1.55273 21.125C2.05273 22.9961 3.52148 24.4727 5.39258 24.9727C6.49414 25.2695 8.66211 25.4531 11.709 25.5664C13.1582 25.6211 14.709 25.6562 16.2598 25.6758C16.8027 25.6836 17.3066 25.6875 17.7598 25.6914H18.9082C19.3613 25.6875 19.8652 25.6836 20.4082 25.6758C21.959 25.6562 23.5098 25.6211 24.959 25.5664C28.0059 25.4492 30.1738 25.2656 31.2754 24.9727C33.1465 24.4727 34.6152 23 35.1152 21.125C35.3535 20.2422 35.5215 19.0664 35.6387 17.6562C35.7246 16.6328 35.7793 15.5469 35.8105 14.457C35.8223 14.0781 35.8262 13.7227 35.8301 13.4063C35.8301 13.293 35.834 13.1953 35.834 13.1094V12.8906ZM33.0215 13.0938C33.0215 13.1758 33.0215 13.2656 33.0176 13.3711C33.0137 13.6758 33.0059 14.0117 32.998 14.375C32.9707 15.4141 32.916 16.4531 32.834 17.418C32.7285 18.6758 32.5801 19.707 32.3965 20.3984C32.1543 21.3008 31.4434 22.0156 30.5449 22.2539C29.7246 22.4727 27.6582 22.6484 24.8496 22.7539C23.4277 22.8086 21.8965 22.8438 20.3691 22.8633C19.834 22.8711 19.3379 22.875 18.8926 22.875H17.7754L16.2988 22.8633C14.7715 22.8438 13.2441 22.8086 11.8184 22.7539C9.00977 22.6445 6.93945 22.4727 6.12305 22.2539C5.22461 22.0117 4.51367 21.3008 4.27148 20.3984C4.08789 19.707 3.93945 18.6758 3.83398 17.418C3.75195 16.4531 3.70117 15.4141 3.66992 14.375C3.6582 14.0117 3.6543 13.6719 3.65039 13.3711C3.65039 13.2656 3.64648 13.1719 3.64648 13.0938V12.9062C3.64648 12.8242 3.64648 12.7344 3.65039 12.6289C3.6543 12.3242 3.66211 11.9883 3.66992 11.625C3.69727 10.5859 3.75195 9.54688 3.83398 8.58203C3.93945 7.32422 4.08789 6.29297 4.27148 5.60156C4.51367 4.69922 5.22461 3.98438 6.12305 3.74609C6.94336 3.52734 9.00977 3.35156 11.8184 3.24609C13.2402 3.19141 14.7715 3.15625 16.2988 3.13672C16.834 3.12891 17.3301 3.125 17.7754 3.125H18.8926L20.3691 3.13672C21.8965 3.15625 23.4238 3.19141 24.8496 3.24609C27.6582 3.35547 29.7285 3.52734 30.5449 3.74609C31.4434 3.98828 32.1543 4.69922 32.3965 5.60156C32.5801 6.29297 32.7285 7.32422 32.834 8.58203C32.916 9.54688 32.9668 10.5859 32.998 11.625C33.0098 11.9883 33.0137 12.3281 33.0176 12.6289C33.0176 12.7344 33.0215 12.8281 33.0215 12.9062V13.0938ZM14.8574 18.2344L23.9199 12.9609L14.8574 7.76562V18.2344Z" fill="#8E8D8B"/>
</svg>
